<svg xmlns="http://www.w3.org/2000/svg" width="18" height="18" fill="none" viewBox="0 0 18 18">
  <path fill="#fff" d="M8.439 5.323 6.695 7.067C6.053 7.709 5.407 8.35 4.768 9c-.15.154-.264.36-.308.562-.232 1.06-.456 2.121-.68 3.182l-.124.588a.837.837 0 0 0 .213.767c.15.15.36.235.58.235.062 0 .124-.008.187-.019l.646-.136c1.028-.216 2.06-.436 3.087-.65.238-.05.44-.157.613-.33 2.885-2.888 5.77-5.773 8.655-8.655.213-.213.33-.466.36-.778a.515.515 0 0 0-.011-.15c-.018-.074-.033-.151-.051-.225-.04-.187-.085-.4-.173-.605-.54-1.234-1.435-2.114-2.661-2.61-.246-.1-.507-.132-.734-.162l-.063-.007c-.33-.04-.631.07-.892.334-1.652 1.66-3.314 3.322-4.973 4.981Zm5.744-4.43h.018l.063.007c.19.022.367.044.507.103.998.404 1.732 1.123 2.176 2.136.052.118.085.268.118.426.01.059.025.117.036.176a.279.279 0 0 1-.091.158c-2.89 2.881-5.774 5.77-8.66 8.655a.29.29 0 0 1-.157.085l-3.091.65-.543.113.103-.48c.223-1.058.447-2.119.675-3.176a.32.32 0 0 1 .07-.12c.638-.647 1.277-1.29 1.92-1.928L9.07 5.955c1.663-1.663 3.326-3.326 4.985-4.993.07-.058.103-.07.128-.07Z"/>
  <path fill="#fff" d="M1.428 4.002h6.409a.451.451 0 1 0 0-.903h-6.41A1.43 1.43 0 0 0 0 4.527v12.017c0 .79.642 1.428 1.428 1.428h12.014a1.43 1.43 0 0 0 1.428-1.428v-6.148a.451.451 0 1 0-.903 0v6.148c0 .29-.239.529-.529.529H1.428a.531.531 0 0 1-.529-.529V4.53a.53.53 0 0 1 .529-.528Z"/>
</svg>
