<svg xmlns="http://www.w3.org/2000/svg" width="84" height="18" fill="none" viewBox="0 0 84 18">
  <path fill="#000" d="M8.439 5.323 6.695 7.067C6.053 7.709 5.407 8.35 4.768 9c-.15.154-.264.36-.308.562-.232 1.06-.456 2.121-.68 3.182l-.124.588a.837.837 0 0 0 .213.767c.15.15.36.235.58.235.062 0 .124-.008.187-.019l.646-.136c1.028-.216 2.06-.436 3.087-.65.238-.05.44-.157.613-.33 2.885-2.888 5.77-5.773 8.655-8.655.213-.213.33-.466.36-.778a.515.515 0 0 0-.011-.15c-.018-.074-.033-.151-.051-.225-.04-.187-.085-.4-.173-.605-.54-1.234-1.435-2.114-2.661-2.61-.246-.1-.507-.132-.734-.162l-.063-.007c-.33-.04-.631.07-.892.334-1.652 1.66-3.314 3.322-4.973 4.981Zm5.744-4.43h.018l.063.007c.19.022.367.044.507.103.998.404 1.732 1.123 2.176 2.136.052.118.085.268.118.426.01.059.025.117.036.176a.279.279 0 0 1-.091.158c-2.89 2.881-5.774 5.77-8.66 8.655a.29.29 0 0 1-.157.085l-3.091.65-.543.113.103-.48c.223-1.058.447-2.119.675-3.176a.32.32 0 0 1 .07-.12c.638-.647 1.277-1.29 1.92-1.928L9.07 5.955c1.663-1.663 3.326-3.326 4.985-4.993.07-.058.103-.07.128-.07Z"/>
  <path fill="#000" d="M1.428 4.002h6.409a.451.451 0 1 0 0-.903h-6.41A1.43 1.43 0 0 0 0 4.527v12.017c0 .79.642 1.428 1.428 1.428h12.014a1.43 1.43 0 0 0 1.428-1.428v-6.148a.451.451 0 1 0-.903 0v6.148c0 .29-.239.529-.529.529H1.428a.531.531 0 0 1-.529-.529V4.53a.53.53 0 0 1 .529-.528ZM27.673 15V8h.98l.07 1.092c.252-.43.579-.742.98-.938.41-.196.83-.294 1.26-.294.495 0 .961.112 1.4.336.439.224.775.57 1.008 1.036.15-.317.36-.574.63-.77a2.72 2.72 0 0 1 .882-.448 3.08 3.08 0 0 1 .924-.154c.448 0 .873.093 1.274.28.41.187.747.476 1.008.868s.392.896.392 1.512V15h-1.12v-4.368c0-.635-.159-1.092-.476-1.372-.317-.28-.71-.42-1.176-.42-.364 0-.705.089-1.022.266a2.008 2.008 0 0 0-.77.784c-.187.345-.28.77-.28 1.274V15h-1.12v-4.368c0-.635-.159-1.092-.476-1.372-.317-.28-.71-.42-1.176-.42-.308 0-.625.084-.952.252-.317.159-.583.415-.798.77-.215.355-.322.821-.322 1.4V15h-1.12Zm16.242-7.14c.663 0 1.246.145 1.75.434.513.29.915.71 1.204 1.26.29.541.434 1.19.434 1.946s-.145 1.41-.434 1.96a3.04 3.04 0 0 1-1.204 1.246c-.504.29-1.087.434-1.75.434-.654 0-1.237-.145-1.75-.434a3.04 3.04 0 0 1-1.204-1.246c-.29-.55-.434-1.204-.434-1.96s.145-1.405.434-1.946c.29-.55.69-.97 1.204-1.26.513-.29 1.096-.434 1.75-.434Zm0 .966c-.476 0-.882.107-1.218.322a2.129 2.129 0 0 0-.784.924c-.177.392-.266.868-.266 1.428 0 .55.089 1.027.266 1.428.187.401.448.71.784.924.336.215.742.322 1.218.322s.882-.107 1.218-.322a2.05 2.05 0 0 0 .77-.924c.187-.401.28-.877.28-1.428 0-.56-.093-1.036-.28-1.428a2.041 2.041 0 0 0-.77-.924c-.336-.215-.742-.322-1.218-.322Zm8.226 6.314a3.06 3.06 0 0 1-1.596-.434 3.127 3.127 0 0 1-1.162-1.246c-.289-.55-.434-1.204-.434-1.96 0-.775.154-1.433.462-1.974a3.156 3.156 0 0 1 1.218-1.232 3.208 3.208 0 0 1 1.624-.434c.579 0 1.078.15 1.498.448.43.299.714.695.854 1.19l-.14.098V4.78h1.12V15h-.98l-.098-1.694.154-.084c-.065.41-.224.76-.476 1.05-.242.28-.546.495-.91.644-.354.15-.732.224-1.134.224Zm.112-.98c.448 0 .836-.112 1.162-.336a2.12 2.12 0 0 0 .77-.952c.187-.42.28-.91.28-1.47 0-.532-.093-.99-.28-1.372a2.009 2.009 0 0 0-.756-.882c-.317-.205-.69-.308-1.12-.308-.709 0-1.26.243-1.652.728-.392.485-.588 1.13-.588 1.932 0 .803.192 1.447.574 1.932.383.485.92.728 1.61.728Zm6.496-7.504a.862.862 0 0 1-.616-.224.863.863 0 0 1-.224-.616c0-.252.074-.453.224-.602a.834.834 0 0 1 .616-.238c.252 0 .452.08.602.238.158.15.238.35.238.602s-.08.457-.238.616c-.15.15-.35.224-.602.224ZM59.309 8v7h-1.12V8h1.12Zm5.44-3.29c.243 0 .472.028.687.084.214.056.382.135.503.238l-.293.91a1.046 1.046 0 0 0-.365-.154 1.578 1.578 0 0 0-.434-.056c-.4 0-.713.098-.937.294-.224.187-.336.49-.336.91V15h-1.12V6.824c0-.308.046-.593.14-.854.093-.261.233-.485.42-.672.195-.187.438-.331.727-.434a3.01 3.01 0 0 1 1.008-.154ZM65.912 8v.966h-4.859V8h4.859Zm2.057-1.344a.862.862 0 0 1-.615-.224.862.862 0 0 1-.225-.616c0-.252.075-.453.224-.602a.833.833 0 0 1 .617-.238c.252 0 .452.08.602.238.158.15.237.35.237.602s-.079.457-.237.616c-.15.15-.35.224-.603.224ZM68.53 8v7h-1.12V8h1.12Zm5.533 7.14c-.663 0-1.255-.145-1.778-.434a3.04 3.04 0 0 1-1.204-1.246c-.29-.55-.434-1.204-.434-1.96s.145-1.405.434-1.946c.29-.55.686-.97 1.19-1.26.504-.29 1.078-.434 1.722-.434.653 0 1.209.14 1.666.42.467.28.821.663 1.064 1.148a3.49 3.49 0 0 1 .364 1.61c0 .159-.005.303-.014.434a3.4 3.4 0 0 1-.042.35h-5.656v-.994h5.166l-.574.112c0-.672-.187-1.19-.56-1.554-.364-.364-.845-.546-1.442-.546-.457 0-.854.107-1.19.322-.327.205-.583.509-.77.91-.177.392-.266.868-.266 1.428 0 .55.093 1.027.28 1.428.187.401.448.71.784.924.345.205.756.308 1.232.308.513 0 .929-.098 1.246-.294.327-.196.588-.462.784-.798l.882.518a2.921 2.921 0 0 1-.686.826 2.96 2.96 0 0 1-.966.546 3.886 3.886 0 0 1-1.232.182Zm5.154-.14V8h.91l.154 1.148c.196-.43.48-.751.854-.966.383-.215.845-.322 1.386-.322.121 0 .252.01.392.028.15.019.275.056.378.112l-.196 1.022a1.77 1.77 0 0 0-.336-.084 3.635 3.635 0 0 0-.518-.028c-.29 0-.583.084-.882.252-.29.168-.532.425-.728.77-.196.336-.294.765-.294 1.288V15h-1.12Z"/>
</svg>
