<svg xmlns="http://www.w3.org/2000/svg" width="17" height="17" fill="none" viewBox="0 0 17 17">
  <g clip-path="url(#a)">
    <path fill="#000" d="M15 0H2a2 2 0 0 0-2 2v13a2 2 0 0 0 2 2h13a2 2 0 0 0 2-2V2a2 2 0 0 0-2-2Z"/>
    <path fill="#fff" d="m14.236 7.816-1.263-1.263a.505.505 0 0 0-.862.357v.758H9.332V4.889h.758a.505.505 0 0 0 .357-.863L9.184 2.763a.505.505 0 0 0-.715 0L7.206 4.026a.505.505 0 0 0 .358.863h.758v2.779h-2.78V6.91a.505.505 0 0 0-.862-.357L3.417 7.816a.505.505 0 0 0 0 .714L4.68 9.793a.505.505 0 0 0 .863-.357v-.758h2.779v2.78h-.758a.505.505 0 0 0-.358.862l1.264 1.263a.503.503 0 0 0 .714 0l1.263-1.263a.505.505 0 0 0-.357-.863h-.758V8.678h2.779v.758a.505.505 0 0 0 .862.357l1.263-1.263a.505.505 0 0 0 0-.714Z"/>
  </g>
  <defs>
    <clipPath id="a">
      <path fill="#fff" d="M0 0h17v17H0z"/>
    </clipPath>
  </defs>
</svg>
