<svg xmlns="http://www.w3.org/2000/svg" width="17" height="17" fill="none" viewBox="0 0 17 17">
  <path fill="#000" d="M15 0H2a2 2 0 0 0-2 2v13a2 2 0 0 0 2 2h13a2 2 0 0 0 2-2V2a2 2 0 0 0-2-2Z"/>
  <path fill="#fff" fill-rule="evenodd" d="M10.6 5.8v-.9a.9.9 0 0 0-.9-.9H7.3a.9.9 0 0 0-.9.9v.9H4v.6h.6v5.7a.9.9 0 0 0 .9.9h6a.9.9 0 0 0 .9-.9V6.4h.6v-.6h-2.4ZM7 4.9a.3.3 0 0 1 .3-.3h2.4a.3.3 0 0 1 .3.3v.9H7v-.9Zm1.2 3.3v3h.6v-3h-.6Zm-1.8 3V9.4H7v1.8h-.6ZM10 9.4v1.8h.6V9.4H10Z" clip-rule="evenodd"/>
</svg>
